<?xml version="1.0" encoding="UTF-8" standalone="no"?>
<!DOCTYPE svg PUBLIC "-//W3C//DTD SVG 1.1//EN"
 "http://www.w3.org/Graphics/SVG/1.1/DTD/svg11.dtd">
<!-- Generated by graphviz version 16.0.0 (0)
 -->
<!-- Title: tree Pages: 1 -->
<svg width="1683pt" height="548pt"
 viewBox="0.00 0.00 1683.00 548.00" xmlns="http://www.w3.org/2000/svg" xmlns:xlink="http://www.w3.org/1999/xlink">
<g id="graph0" class="graph" transform="scale(1 1) rotate(0) translate(4 544)">
<title>tree</title>
<polygon fill="white" stroke="none" points="-4,4 -4,-544 1679,-544 1679,4 -4,4"/>
<!-- tree_0 -->
<g id="node1" class="node">
<title>tree_0</title>
<ellipse fill="none" stroke="black" cx="567" cy="-522" rx="64.36" ry="18"/>
<text xml:space="preserve" text-anchor="middle" x="567" y="-517.33" font-family="Times,serif" font-size="14.00">source_file</text>
</g>
<!-- tree_1 -->
<g id="node2" class="node">
<title>tree_1</title>
<ellipse fill="none" stroke="black" cx="219" cy="-450" rx="31.22" ry="18"/>
<text xml:space="preserve" text-anchor="middle" x="219" y="-445.32" font-family="Times,serif" font-size="14.00">LET</text>
</g>
<!-- tree_0&#45;&gt;tree_1 -->
<g id="edge19" class="edge">
<title>tree_0&#45;&gt;tree_1</title>
<path fill="none" stroke="black" d="M516.03,-510.75C446.36,-496.73 322.81,-471.88 259.25,-459.1"/>
<polygon fill="black" stroke="black" points="260.08,-455.69 249.59,-457.15 258.7,-462.56 260.08,-455.69"/>
</g>
<!-- tree_20 -->
<g id="node21" class="node">
<title>tree_20</title>
<ellipse fill="none" stroke="black" cx="495" cy="-450" rx="39.63" ry="18"/>
<text xml:space="preserve" text-anchor="middle" x="495" y="-445.32" font-family="Times,serif" font-size="14.00">EXPR</text>
</g>
<!-- tree_0&#45;&gt;tree_20 -->
<g id="edge39" class="edge">
<title>tree_0&#45;&gt;tree_20</title>
<path fill="none" stroke="black" d="M549.94,-504.41C540.71,-495.44 529.16,-484.21 519.04,-474.37"/>
<polygon fill="black" stroke="black" points="521.65,-472.03 512.04,-467.57 516.77,-477.05 521.65,-472.03"/>
</g>
<!-- tree_40 -->
<g id="node41" class="node">
<title>tree_40</title>
<ellipse fill="none" stroke="black" cx="675" cy="-450" rx="31.22" ry="18"/>
<text xml:space="preserve" text-anchor="middle" x="675" y="-445.32" font-family="Times,serif" font-size="14.00">LET</text>
</g>
<!-- tree_0&#45;&gt;tree_40 -->
<g id="edge51" class="edge">
<title>tree_0&#45;&gt;tree_40</title>
<path fill="none" stroke="black" d="M591.78,-504.94C607.71,-494.62 628.49,-481.14 645.31,-470.25"/>
<polygon fill="black" stroke="black" points="646.92,-473.37 653.41,-464.99 643.11,-467.5 646.92,-473.37"/>
</g>
<!-- tree_52 -->
<g id="node53" class="node">
<title>tree_52</title>
<ellipse fill="none" stroke="black" cx="1242" cy="-450" rx="33.32" ry="18"/>
<text xml:space="preserve" text-anchor="middle" x="1242" y="-445.32" font-family="Times,serif" font-size="14.00">DEF</text>
</g>
<!-- tree_0&#45;&gt;tree_52 -->
<g id="edge83" class="edge">
<title>tree_0&#45;&gt;tree_52</title>
<path fill="none" stroke="black" d="M626.61,-514.82C760.08,-500.98 1080.45,-467.75 1197.89,-455.57"/>
<polygon fill="black" stroke="black" points="1198.16,-459.07 1207.75,-454.55 1197.44,-452.1 1198.16,-459.07"/>
</g>
<!-- tree_2 -->
<g id="node3" class="node">
<title>tree_2</title>
<ellipse fill="none" stroke="black" cx="28" cy="-378" rx="27" ry="18"/>
<text xml:space="preserve" text-anchor="middle" x="28" y="-373.32" font-family="Times,serif" font-size="14.00">let</text>
</g>
<!-- tree_1&#45;&gt;tree_2 -->
<g id="edge2" class="edge">
<title>tree_1&#45;&gt;tree_2</title>
<path fill="none" stroke="black" d="M192.35,-440.22C162.03,-430.11 111.13,-412.72 68,-396 65.66,-395.09 63.25,-394.13 60.82,-393.15"/>
<polygon fill="black" stroke="black" points="62.3,-389.97 51.72,-389.37 59.61,-396.44 62.3,-389.97"/>
</g>
<!-- tree_4 -->
<g id="node5" class="node">
<title>tree_4</title>
<ellipse fill="none" stroke="black" cx="104" cy="-378" rx="27" ry="18"/>
<text xml:space="preserve" text-anchor="middle" x="104" y="-373.32" font-family="Times,serif" font-size="14.00">id</text>
</g>
<!-- tree_1&#45;&gt;tree_4 -->
<g id="edge4" class="edge">
<title>tree_1&#45;&gt;tree_4</title>
<path fill="none" stroke="black" d="M198.17,-436.32C180.01,-425.27 153.47,-409.11 133.19,-396.77"/>
<polygon fill="black" stroke="black" points="135.18,-393.88 124.81,-391.67 131.54,-399.86 135.18,-393.88"/>
</g>
<!-- tree_6 -->
<g id="node7" class="node">
<title>tree_6</title>
<ellipse fill="none" stroke="black" cx="178" cy="-378" rx="27" ry="18"/>
<text xml:space="preserve" text-anchor="middle" x="178" y="-373.32" font-family="Times,serif" font-size="14.00">=</text>
</g>
<!-- tree_1&#45;&gt;tree_6 -->
<g id="edge6" class="edge">
<title>tree_1&#45;&gt;tree_6</title>
<path fill="none" stroke="black" d="M209.28,-432.41C204.47,-424.19 198.54,-414.06 193.14,-404.85"/>
<polygon fill="black" stroke="black" points="196.2,-403.15 188.13,-396.29 190.16,-406.69 196.2,-403.15"/>
</g>
<!-- tree_8 -->
<g id="node9" class="node">
<title>tree_8</title>
<ellipse fill="none" stroke="black" cx="258" cy="-378" rx="33.85" ry="18"/>
<text xml:space="preserve" text-anchor="middle" x="258" y="-373.32" font-family="Times,serif" font-size="14.00">expr</text>
</g>
<!-- tree_1&#45;&gt;tree_8 -->
<g id="edge16" class="edge">
<title>tree_1&#45;&gt;tree_8</title>
<path fill="none" stroke="black" d="M228.24,-432.41C232.76,-424.3 238.3,-414.35 243.38,-405.25"/>
<polygon fill="black" stroke="black" points="246.28,-407.23 248.09,-396.79 240.16,-403.82 246.28,-407.23"/>
</g>
<!-- tree_18 -->
<g id="node19" class="node">
<title>tree_18</title>
<ellipse fill="none" stroke="black" cx="337" cy="-378" rx="27" ry="18"/>
<text xml:space="preserve" text-anchor="middle" x="337" y="-373.32" font-family="Times,serif" font-size="14.00">;</text>
</g>
<!-- tree_1&#45;&gt;tree_18 -->
<g id="edge18" class="edge">
<title>tree_1&#45;&gt;tree_18</title>
<path fill="none" stroke="black" d="M240.1,-436.49C258.9,-425.33 286.6,-408.9 307.58,-396.46"/>
<polygon fill="black" stroke="black" points="309.15,-399.59 315.96,-391.48 305.58,-393.57 309.15,-399.59"/>
</g>
<!-- tree_3 -->
<g id="node4" class="node">
<title>tree_3</title>
<polygon fill="none" stroke="black" points="54,-324 0,-324 0,-288 54,-288 54,-324"/>
<text xml:space="preserve" text-anchor="middle" x="27" y="-301.32" font-family="Times,serif" font-size="14.00">let</text>
</g>
<!-- tree_2&#45;&gt;tree_3 -->
<g id="edge1" class="edge">
<title>tree_2&#45;&gt;tree_3</title>
<path fill="none" stroke="black" d="M27.75,-359.7C27.65,-352.41 27.52,-343.73 27.41,-335.54"/>
<polygon fill="black" stroke="black" points="30.91,-335.57 27.27,-325.62 23.91,-335.67 30.91,-335.57"/>
</g>
<!-- tree_5 -->
<g id="node6" class="node">
<title>tree_5</title>
<polygon fill="none" stroke="black" points="126,-324 72,-324 72,-288 126,-288 126,-324"/>
<text xml:space="preserve" text-anchor="middle" x="99" y="-301.32" font-family="Times,serif" font-size="14.00">y</text>
</g>
<!-- tree_4&#45;&gt;tree_5 -->
<g id="edge3" class="edge">
<title>tree_4&#45;&gt;tree_5</title>
<path fill="none" stroke="black" d="M102.76,-359.7C102.24,-352.41 101.62,-343.73 101.04,-335.54"/>
<polygon fill="black" stroke="black" points="104.53,-335.34 100.33,-325.61 97.55,-335.84 104.53,-335.34"/>
</g>
<!-- tree_7 -->
<g id="node8" class="node">
<title>tree_7</title>
<polygon fill="none" stroke="black" points="198,-324 144,-324 144,-288 198,-288 198,-324"/>
<text xml:space="preserve" text-anchor="middle" x="171" y="-301.32" font-family="Times,serif" font-size="14.00">=</text>
</g>
<!-- tree_6&#45;&gt;tree_7 -->
<g id="edge5" class="edge">
<title>tree_6&#45;&gt;tree_7</title>
<path fill="none" stroke="black" d="M176.27,-359.7C175.54,-352.41 174.67,-343.73 173.85,-335.54"/>
<polygon fill="black" stroke="black" points="177.34,-335.21 172.86,-325.61 170.37,-335.91 177.34,-335.21"/>
</g>
<!-- tree_9 -->
<g id="node10" class="node">
<title>tree_9</title>
<ellipse fill="none" stroke="black" cx="259" cy="-306" rx="43.32" ry="18"/>
<text xml:space="preserve" text-anchor="middle" x="259" y="-301.32" font-family="Times,serif" font-size="14.00">binary</text>
</g>
<!-- tree_8&#45;&gt;tree_9 -->
<g id="edge15" class="edge">
<title>tree_8&#45;&gt;tree_9</title>
<path fill="none" stroke="black" d="M258.25,-359.7C258.35,-352.41 258.48,-343.73 258.59,-335.54"/>
<polygon fill="black" stroke="black" points="262.09,-335.67 258.73,-325.62 255.09,-335.57 262.09,-335.67"/>
</g>
<!-- tree_10 -->
<g id="node11" class="node">
<title>tree_10</title>
<ellipse fill="none" stroke="black" cx="180" cy="-234" rx="33.85" ry="18"/>
<text xml:space="preserve" text-anchor="middle" x="180" y="-229.32" font-family="Times,serif" font-size="14.00">expr</text>
</g>
<!-- tree_9&#45;&gt;tree_10 -->
<g id="edge9" class="edge">
<title>tree_9&#45;&gt;tree_10</title>
<path fill="none" stroke="black" d="M241.47,-289.46C230.89,-280.09 217.23,-267.99 205.48,-257.57"/>
<polygon fill="black" stroke="black" points="207.88,-255.03 198.07,-251.02 203.24,-260.27 207.88,-255.03"/>
</g>
<!-- tree_13 -->
<g id="node14" class="node">
<title>tree_13</title>
<ellipse fill="none" stroke="black" cx="259" cy="-234" rx="27" ry="18"/>
<text xml:space="preserve" text-anchor="middle" x="259" y="-229.32" font-family="Times,serif" font-size="14.00">+</text>
</g>
<!-- tree_9&#45;&gt;tree_13 -->
<g id="edge11" class="edge">
<title>tree_9&#45;&gt;tree_13</title>
<path fill="none" stroke="black" d="M259,-287.7C259,-280.41 259,-271.73 259,-263.54"/>
<polygon fill="black" stroke="black" points="262.5,-263.62 259,-253.62 255.5,-263.62 262.5,-263.62"/>
</g>
<!-- tree_15 -->
<g id="node16" class="node">
<title>tree_15</title>
<ellipse fill="none" stroke="black" cx="338" cy="-234" rx="33.85" ry="18"/>
<text xml:space="preserve" text-anchor="middle" x="338" y="-229.32" font-family="Times,serif" font-size="14.00">expr</text>
</g>
<!-- tree_9&#45;&gt;tree_15 -->
<g id="edge14" class="edge">
<title>tree_9&#45;&gt;tree_15</title>
<path fill="none" stroke="black" d="M276.53,-289.46C287.11,-280.09 300.77,-267.99 312.52,-257.57"/>
<polygon fill="black" stroke="black" points="314.76,-260.27 319.93,-251.02 310.12,-255.03 314.76,-260.27"/>
</g>
<!-- tree_11 -->
<g id="node12" class="node">
<title>tree_11</title>
<ellipse fill="none" stroke="black" cx="180" cy="-162" rx="27" ry="18"/>
<text xml:space="preserve" text-anchor="middle" x="180" y="-157.32" font-family="Times,serif" font-size="14.00">id</text>
</g>
<!-- tree_10&#45;&gt;tree_11 -->
<g id="edge8" class="edge">
<title>tree_10&#45;&gt;tree_11</title>
<path fill="none" stroke="black" d="M180,-215.7C180,-208.41 180,-199.73 180,-191.54"/>
<polygon fill="black" stroke="black" points="183.5,-191.62 180,-181.62 176.5,-191.62 183.5,-191.62"/>
</g>
<!-- tree_12 -->
<g id="node13" class="node">
<title>tree_12</title>
<polygon fill="none" stroke="black" points="207,-108 153,-108 153,-72 207,-72 207,-108"/>
<text xml:space="preserve" text-anchor="middle" x="180" y="-85.33" font-family="Times,serif" font-size="14.00">x</text>
</g>
<!-- tree_11&#45;&gt;tree_12 -->
<g id="edge7" class="edge">
<title>tree_11&#45;&gt;tree_12</title>
<path fill="none" stroke="black" d="M180,-143.7C180,-136.41 180,-127.73 180,-119.54"/>
<polygon fill="black" stroke="black" points="183.5,-119.62 180,-109.62 176.5,-119.62 183.5,-119.62"/>
</g>
<!-- tree_14 -->
<g id="node15" class="node">
<title>tree_14</title>
<polygon fill="none" stroke="black" points="286,-180 232,-180 232,-144 286,-144 286,-180"/>
<text xml:space="preserve" text-anchor="middle" x="259" y="-157.32" font-family="Times,serif" font-size="14.00">+</text>
</g>
<!-- tree_13&#45;&gt;tree_14 -->
<g id="edge10" class="edge">
<title>tree_13&#45;&gt;tree_14</title>
<path fill="none" stroke="black" d="M259,-215.7C259,-208.41 259,-199.73 259,-191.54"/>
<polygon fill="black" stroke="black" points="262.5,-191.62 259,-181.62 255.5,-191.62 262.5,-191.62"/>
</g>
<!-- tree_16 -->
<g id="node17" class="node">
<title>tree_16</title>
<ellipse fill="none" stroke="black" cx="338" cy="-162" rx="33.32" ry="18"/>
<text xml:space="preserve" text-anchor="middle" x="338" y="-157.32" font-family="Times,serif" font-size="14.00">num</text>
</g>
<!-- tree_15&#45;&gt;tree_16 -->
<g id="edge13" class="edge">
<title>tree_15&#45;&gt;tree_16</title>
<path fill="none" stroke="black" d="M338,-215.7C338,-208.41 338,-199.73 338,-191.54"/>
<polygon fill="black" stroke="black" points="341.5,-191.62 338,-181.62 334.5,-191.62 341.5,-191.62"/>
</g>
<!-- tree_17 -->
<g id="node18" class="node">
<title>tree_17</title>
<polygon fill="none" stroke="black" points="365,-108 311,-108 311,-72 365,-72 365,-108"/>
<text xml:space="preserve" text-anchor="middle" x="338" y="-85.33" font-family="Times,serif" font-size="14.00">2</text>
</g>
<!-- tree_16&#45;&gt;tree_17 -->
<g id="edge12" class="edge">
<title>tree_16&#45;&gt;tree_17</title>
<path fill="none" stroke="black" d="M338,-143.7C338,-136.41 338,-127.73 338,-119.54"/>
<polygon fill="black" stroke="black" points="341.5,-119.62 338,-109.62 334.5,-119.62 341.5,-119.62"/>
</g>
<!-- tree_19 -->
<g id="node20" class="node">
<title>tree_19</title>
<polygon fill="none" stroke="black" points="374,-324 320,-324 320,-288 374,-288 374,-324"/>
<text xml:space="preserve" text-anchor="middle" x="347" y="-301.32" font-family="Times,serif" font-size="14.00">;</text>
</g>
<!-- tree_18&#45;&gt;tree_19 -->
<g id="edge17" class="edge">
<title>tree_18&#45;&gt;tree_19</title>
<path fill="none" stroke="black" d="M339.47,-359.7C340.53,-352.32 341.78,-343.52 342.96,-335.25"/>
<polygon fill="black" stroke="black" points="346.39,-336 344.34,-325.6 339.46,-335.01 346.39,-336"/>
</g>
<!-- tree_21 -->
<g id="node22" class="node">
<title>tree_21</title>
<ellipse fill="none" stroke="black" cx="416" cy="-378" rx="33.85" ry="18"/>
<text xml:space="preserve" text-anchor="middle" x="416" y="-373.32" font-family="Times,serif" font-size="14.00">expr</text>
</g>
<!-- tree_20&#45;&gt;tree_21 -->
<g id="edge36" class="edge">
<title>tree_20&#45;&gt;tree_21</title>
<path fill="none" stroke="black" d="M477.47,-433.46C466.89,-424.09 453.23,-411.99 441.48,-401.57"/>
<polygon fill="black" stroke="black" points="443.88,-399.03 434.07,-395.02 439.24,-404.27 443.88,-399.03"/>
</g>
<!-- tree_38 -->
<g id="node39" class="node">
<title>tree_38</title>
<ellipse fill="none" stroke="black" cx="495" cy="-378" rx="27" ry="18"/>
<text xml:space="preserve" text-anchor="middle" x="495" y="-373.32" font-family="Times,serif" font-size="14.00">;</text>
</g>
<!-- tree_20&#45;&gt;tree_38 -->
<g id="edge38" class="edge">
<title>tree_20&#45;&gt;tree_38</title>
<path fill="none" stroke="black" d="M495,-431.7C495,-424.41 495,-415.73 495,-407.54"/>
<polygon fill="black" stroke="black" points="498.5,-407.62 495,-397.62 491.5,-407.62 498.5,-407.62"/>
</g>
<!-- tree_22 -->
<g id="node23" class="node">
<title>tree_22</title>
<ellipse fill="none" stroke="black" cx="421" cy="-306" rx="28.59" ry="18"/>
<text xml:space="preserve" text-anchor="middle" x="421" y="-301.32" font-family="Times,serif" font-size="14.00">call</text>
</g>
<!-- tree_21&#45;&gt;tree_22 -->
<g id="edge35" class="edge">
<title>tree_21&#45;&gt;tree_22</title>
<path fill="none" stroke="black" d="M417.24,-359.7C417.76,-352.41 418.38,-343.73 418.96,-335.54"/>
<polygon fill="black" stroke="black" points="422.45,-335.84 419.67,-325.61 415.47,-335.34 422.45,-335.84"/>
</g>
<!-- tree_23 -->
<g id="node24" class="node">
<title>tree_23</title>
<ellipse fill="none" stroke="black" cx="419" cy="-234" rx="27" ry="18"/>
<text xml:space="preserve" text-anchor="middle" x="419" y="-229.32" font-family="Times,serif" font-size="14.00">id</text>
</g>
<!-- tree_22&#45;&gt;tree_23 -->
<g id="edge21" class="edge">
<title>tree_22&#45;&gt;tree_23</title>
<path fill="none" stroke="black" d="M420.51,-287.7C420.3,-280.41 420.05,-271.73 419.82,-263.54"/>
<polygon fill="black" stroke="black" points="423.32,-263.51 419.53,-253.62 416.32,-263.71 423.32,-263.51"/>
</g>
<!-- tree_25 -->
<g id="node26" class="node">
<title>tree_25</title>
<ellipse fill="none" stroke="black" cx="609" cy="-234" rx="33.32" ry="18"/>
<text xml:space="preserve" text-anchor="middle" x="609" y="-229.32" font-family="Times,serif" font-size="14.00">args</text>
</g>
<!-- tree_22&#45;&gt;tree_25 -->
<g id="edge34" class="edge">
<title>tree_22&#45;&gt;tree_25</title>
<path fill="none" stroke="black" d="M443.38,-294.63C448.48,-292.36 453.9,-290.04 459,-288 496.35,-273.08 539.74,-257.98 570.22,-247.74"/>
<polygon fill="black" stroke="black" points="571.01,-251.16 579.39,-244.67 568.8,-244.52 571.01,-251.16"/>
</g>
<!-- tree_24 -->
<g id="node25" class="node">
<title>tree_24</title>
<polygon fill="none" stroke="black" points="445,-180 391,-180 391,-144 445,-144 445,-180"/>
<text xml:space="preserve" text-anchor="middle" x="418" y="-157.32" font-family="Times,serif" font-size="14.00">add</text>
</g>
<!-- tree_23&#45;&gt;tree_24 -->
<g id="edge20" class="edge">
<title>tree_23&#45;&gt;tree_24</title>
<path fill="none" stroke="black" d="M418.75,-215.7C418.65,-208.41 418.52,-199.73 418.41,-191.54"/>
<polygon fill="black" stroke="black" points="421.91,-191.57 418.27,-181.62 414.91,-191.67 421.91,-191.57"/>
</g>
<!-- tree_26 -->
<g id="node27" class="node">
<title>tree_26</title>
<ellipse fill="none" stroke="black" cx="490" cy="-162" rx="27" ry="18"/>
<text xml:space="preserve" text-anchor="middle" x="490" y="-157.32" font-family="Times,serif" font-size="14.00">(</text>
</g>
<!-- tree_25&#45;&gt;tree_26 -->
<g id="edge23" class="edge">
<title>tree_25&#45;&gt;tree_26</title>
<path fill="none" stroke="black" d="M587.17,-220.16C568.14,-208.97 540.38,-192.64 519.4,-180.29"/>
<polygon fill="black" stroke="black" points="521.41,-177.42 511.02,-175.36 517.86,-183.45 521.41,-177.42"/>
</g>
<!-- tree_28 -->
<g id="node29" class="node">
<title>tree_28</title>
<ellipse fill="none" stroke="black" cx="569" cy="-162" rx="33.85" ry="18"/>
<text xml:space="preserve" text-anchor="middle" x="569" y="-157.32" font-family="Times,serif" font-size="14.00">expr</text>
</g>
<!-- tree_25&#45;&gt;tree_28 -->
<g id="edge26" class="edge">
<title>tree_25&#45;&gt;tree_28</title>
<path fill="none" stroke="black" d="M599.52,-216.41C594.89,-208.3 589.2,-198.35 584,-189.25"/>
<polygon fill="black" stroke="black" points="587.16,-187.73 579.16,-180.78 581.08,-191.2 587.16,-187.73"/>
</g>
<!-- tree_31 -->
<g id="node32" class="node">
<title>tree_31</title>
<ellipse fill="none" stroke="black" cx="648" cy="-162" rx="27" ry="18"/>
<text xml:space="preserve" text-anchor="middle" x="648" y="-157.32" font-family="Times,serif" font-size="14.00">,</text>
</g>
<!-- tree_25&#45;&gt;tree_31 -->
<g id="edge28" class="edge">
<title>tree_25&#45;&gt;tree_31</title>
<path fill="none" stroke="black" d="M618.24,-216.41C622.82,-208.19 628.46,-198.06 633.6,-188.85"/>
<polygon fill="black" stroke="black" points="636.55,-190.75 638.36,-180.31 630.43,-187.34 636.55,-190.75"/>
</g>
<!-- tree_33 -->
<g id="node34" class="node">
<title>tree_33</title>
<ellipse fill="none" stroke="black" cx="727" cy="-162" rx="33.85" ry="18"/>
<text xml:space="preserve" text-anchor="middle" x="727" y="-157.32" font-family="Times,serif" font-size="14.00">expr</text>
</g>
<!-- tree_25&#45;&gt;tree_33 -->
<g id="edge31" class="edge">
<title>tree_25&#45;&gt;tree_33</title>
<path fill="none" stroke="black" d="M630.92,-220C649.05,-209.24 675.04,-193.82 695.42,-181.74"/>
<polygon fill="black" stroke="black" points="697.08,-184.82 703.9,-176.7 693.51,-178.8 697.08,-184.82"/>
</g>
<!-- tree_36 -->
<g id="node37" class="node">
<title>tree_36</title>
<ellipse fill="none" stroke="black" cx="806" cy="-162" rx="27" ry="18"/>
<text xml:space="preserve" text-anchor="middle" x="806" y="-157.32" font-family="Times,serif" font-size="14.00">)</text>
</g>
<!-- tree_25&#45;&gt;tree_36 -->
<g id="edge33" class="edge">
<title>tree_25&#45;&gt;tree_36</title>
<path fill="none" stroke="black" d="M637.88,-224.67C670.4,-215.01 724.63,-198.1 770,-180 771.52,-179.39 773.08,-178.75 774.64,-178.09"/>
<polygon fill="black" stroke="black" points="775.79,-181.4 783.49,-174.13 772.93,-175.01 775.79,-181.4"/>
</g>
<!-- tree_27 -->
<g id="node28" class="node">
<title>tree_27</title>
<polygon fill="none" stroke="black" points="517,-108 463,-108 463,-72 517,-72 517,-108"/>
<text xml:space="preserve" text-anchor="middle" x="490" y="-85.33" font-family="Times,serif" font-size="14.00">(</text>
</g>
<!-- tree_26&#45;&gt;tree_27 -->
<g id="edge22" class="edge">
<title>tree_26&#45;&gt;tree_27</title>
<path fill="none" stroke="black" d="M490,-143.7C490,-136.41 490,-127.73 490,-119.54"/>
<polygon fill="black" stroke="black" points="493.5,-119.62 490,-109.62 486.5,-119.62 493.5,-119.62"/>
</g>
<!-- tree_29 -->
<g id="node30" class="node">
<title>tree_29</title>
<ellipse fill="none" stroke="black" cx="569" cy="-90" rx="27" ry="18"/>
<text xml:space="preserve" text-anchor="middle" x="569" y="-85.33" font-family="Times,serif" font-size="14.00">id</text>
</g>
<!-- tree_28&#45;&gt;tree_29 -->
<g id="edge25" class="edge">
<title>tree_28&#45;&gt;tree_29</title>
<path fill="none" stroke="black" d="M569,-143.7C569,-136.41 569,-127.73 569,-119.54"/>
<polygon fill="black" stroke="black" points="572.5,-119.62 569,-109.62 565.5,-119.62 572.5,-119.62"/>
</g>
<!-- tree_30 -->
<g id="node31" class="node">
<title>tree_30</title>
<polygon fill="none" stroke="black" points="596,-36 542,-36 542,0 596,0 596,-36"/>
<text xml:space="preserve" text-anchor="middle" x="569" y="-13.32" font-family="Times,serif" font-size="14.00">y</text>
</g>
<!-- tree_29&#45;&gt;tree_30 -->
<g id="edge24" class="edge">
<title>tree_29&#45;&gt;tree_30</title>
<path fill="none" stroke="black" d="M569,-71.7C569,-64.41 569,-55.73 569,-47.54"/>
<polygon fill="black" stroke="black" points="572.5,-47.62 569,-37.62 565.5,-47.62 572.5,-47.62"/>
</g>
<!-- tree_32 -->
<g id="node33" class="node">
<title>tree_32</title>
<polygon fill="none" stroke="black" points="675,-108 621,-108 621,-72 675,-72 675,-108"/>
<text xml:space="preserve" text-anchor="middle" x="648" y="-85.33" font-family="Times,serif" font-size="14.00">,</text>
</g>
<!-- tree_31&#45;&gt;tree_32 -->
<g id="edge27" class="edge">
<title>tree_31&#45;&gt;tree_32</title>
<path fill="none" stroke="black" d="M648,-143.7C648,-136.41 648,-127.73 648,-119.54"/>
<polygon fill="black" stroke="black" points="651.5,-119.62 648,-109.62 644.5,-119.62 651.5,-119.62"/>
</g>
<!-- tree_34 -->
<g id="node35" class="node">
<title>tree_34</title>
<ellipse fill="none" stroke="black" cx="727" cy="-90" rx="33.32" ry="18"/>
<text xml:space="preserve" text-anchor="middle" x="727" y="-85.33" font-family="Times,serif" font-size="14.00">num</text>
</g>
<!-- tree_33&#45;&gt;tree_34 -->
<g id="edge30" class="edge">
<title>tree_33&#45;&gt;tree_34</title>
<path fill="none" stroke="black" d="M727,-143.7C727,-136.41 727,-127.73 727,-119.54"/>
<polygon fill="black" stroke="black" points="730.5,-119.62 727,-109.62 723.5,-119.62 730.5,-119.62"/>
</g>
<!-- tree_35 -->
<g id="node36" class="node">
<title>tree_35</title>
<polygon fill="none" stroke="black" points="754,-36 700,-36 700,0 754,0 754,-36"/>
<text xml:space="preserve" text-anchor="middle" x="727" y="-13.32" font-family="Times,serif" font-size="14.00">3</text>
</g>
<!-- tree_34&#45;&gt;tree_35 -->
<g id="edge29" class="edge">
<title>tree_34&#45;&gt;tree_35</title>
<path fill="none" stroke="black" d="M727,-71.7C727,-64.41 727,-55.73 727,-47.54"/>
<polygon fill="black" stroke="black" points="730.5,-47.62 727,-37.62 723.5,-47.62 730.5,-47.62"/>
</g>
<!-- tree_37 -->
<g id="node38" class="node">
<title>tree_37</title>
<polygon fill="none" stroke="black" points="833,-108 779,-108 779,-72 833,-72 833,-108"/>
<text xml:space="preserve" text-anchor="middle" x="806" y="-85.33" font-family="Times,serif" font-size="14.00">)</text>
</g>
<!-- tree_36&#45;&gt;tree_37 -->
<g id="edge32" class="edge">
<title>tree_36&#45;&gt;tree_37</title>
<path fill="none" stroke="black" d="M806,-143.7C806,-136.41 806,-127.73 806,-119.54"/>
<polygon fill="black" stroke="black" points="809.5,-119.62 806,-109.62 802.5,-119.62 809.5,-119.62"/>
</g>
<!-- tree_39 -->
<g id="node40" class="node">
<title>tree_39</title>
<polygon fill="none" stroke="black" points="522,-324 468,-324 468,-288 522,-288 522,-324"/>
<text xml:space="preserve" text-anchor="middle" x="495" y="-301.32" font-family="Times,serif" font-size="14.00">;</text>
</g>
<!-- tree_38&#45;&gt;tree_39 -->
<g id="edge37" class="edge">
<title>tree_38&#45;&gt;tree_39</title>
<path fill="none" stroke="black" d="M495,-359.7C495,-352.41 495,-343.73 495,-335.54"/>
<polygon fill="black" stroke="black" points="498.5,-335.62 495,-325.62 491.5,-335.62 498.5,-335.62"/>
</g>
<!-- tree_41 -->
<g id="node42" class="node">
<title>tree_41</title>
<ellipse fill="none" stroke="black" cx="567" cy="-378" rx="27" ry="18"/>
<text xml:space="preserve" text-anchor="middle" x="567" y="-373.32" font-family="Times,serif" font-size="14.00">let</text>
</g>
<!-- tree_40&#45;&gt;tree_41 -->
<g id="edge41" class="edge">
<title>tree_40&#45;&gt;tree_41</title>
<path fill="none" stroke="black" d="M654.69,-435.83C637.9,-424.96 613.9,-409.4 595.24,-397.31"/>
<polygon fill="black" stroke="black" points="597.34,-394.5 587.05,-391.99 593.54,-400.37 597.34,-394.5"/>
</g>
<!-- tree_43 -->
<g id="node44" class="node">
<title>tree_43</title>
<ellipse fill="none" stroke="black" cx="639" cy="-378" rx="27" ry="18"/>
<text xml:space="preserve" text-anchor="middle" x="639" y="-373.32" font-family="Times,serif" font-size="14.00">id</text>
</g>
<!-- tree_40&#45;&gt;tree_43 -->
<g id="edge43" class="edge">
<title>tree_40&#45;&gt;tree_43</title>
<path fill="none" stroke="black" d="M666.47,-432.41C662.34,-424.39 657.29,-414.57 652.65,-405.54"/>
<polygon fill="black" stroke="black" points="655.85,-404.11 648.16,-396.82 649.62,-407.31 655.85,-404.11"/>
</g>
<!-- tree_45 -->
<g id="node46" class="node">
<title>tree_45</title>
<ellipse fill="none" stroke="black" cx="711" cy="-378" rx="27" ry="18"/>
<text xml:space="preserve" text-anchor="middle" x="711" y="-373.32" font-family="Times,serif" font-size="14.00">=</text>
</g>
<!-- tree_40&#45;&gt;tree_45 -->
<g id="edge45" class="edge">
<title>tree_40&#45;&gt;tree_45</title>
<path fill="none" stroke="black" d="M683.53,-432.41C687.66,-424.39 692.71,-414.57 697.35,-405.54"/>
<polygon fill="black" stroke="black" points="700.38,-407.31 701.84,-396.82 694.15,-404.11 700.38,-407.31"/>
</g>
<!-- tree_47 -->
<g id="node48" class="node">
<title>tree_47</title>
<ellipse fill="none" stroke="black" cx="790" cy="-378" rx="33.85" ry="18"/>
<text xml:space="preserve" text-anchor="middle" x="790" y="-373.32" font-family="Times,serif" font-size="14.00">expr</text>
</g>
<!-- tree_40&#45;&gt;tree_47 -->
<g id="edge48" class="edge">
<title>tree_40&#45;&gt;tree_47</title>
<path fill="none" stroke="black" d="M695.83,-436.32C713.43,-425.61 738.92,-410.09 758.94,-397.91"/>
<polygon fill="black" stroke="black" points="760.53,-401.03 767.26,-392.84 756.89,-395.05 760.53,-401.03"/>
</g>
<!-- tree_50 -->
<g id="node51" class="node">
<title>tree_50</title>
<ellipse fill="none" stroke="black" cx="869" cy="-378" rx="27" ry="18"/>
<text xml:space="preserve" text-anchor="middle" x="869" y="-373.32" font-family="Times,serif" font-size="14.00">;</text>
</g>
<!-- tree_40&#45;&gt;tree_50 -->
<g id="edge50" class="edge">
<title>tree_40&#45;&gt;tree_50</title>
<path fill="none" stroke="black" d="M702.47,-440.86C734.27,-431.19 788.04,-414.08 833,-396 834.52,-395.39 836.07,-394.74 837.63,-394.08"/>
<polygon fill="black" stroke="black" points="838.79,-397.39 846.48,-390.11 835.93,-391.01 838.79,-397.39"/>
</g>
<!-- tree_42 -->
<g id="node43" class="node">
<title>tree_42</title>
<polygon fill="none" stroke="black" points="594,-324 540,-324 540,-288 594,-288 594,-324"/>
<text xml:space="preserve" text-anchor="middle" x="567" y="-301.32" font-family="Times,serif" font-size="14.00">let</text>
</g>
<!-- tree_41&#45;&gt;tree_42 -->
<g id="edge40" class="edge">
<title>tree_41&#45;&gt;tree_42</title>
<path fill="none" stroke="black" d="M567,-359.7C567,-352.41 567,-343.73 567,-335.54"/>
<polygon fill="black" stroke="black" points="570.5,-335.62 567,-325.62 563.5,-335.62 570.5,-335.62"/>
</g>
<!-- tree_44 -->
<g id="node45" class="node">
<title>tree_44</title>
<polygon fill="none" stroke="black" points="666,-324 612,-324 612,-288 666,-288 666,-324"/>
<text xml:space="preserve" text-anchor="middle" x="639" y="-301.32" font-family="Times,serif" font-size="14.00">x</text>
</g>
<!-- tree_43&#45;&gt;tree_44 -->
<g id="edge42" class="edge">
<title>tree_43&#45;&gt;tree_44</title>
<path fill="none" stroke="black" d="M639,-359.7C639,-352.41 639,-343.73 639,-335.54"/>
<polygon fill="black" stroke="black" points="642.5,-335.62 639,-325.62 635.5,-335.62 642.5,-335.62"/>
</g>
<!-- tree_46 -->
<g id="node47" class="node">
<title>tree_46</title>
<polygon fill="none" stroke="black" points="738,-324 684,-324 684,-288 738,-288 738,-324"/>
<text xml:space="preserve" text-anchor="middle" x="711" y="-301.32" font-family="Times,serif" font-size="14.00">=</text>
</g>
<!-- tree_45&#45;&gt;tree_46 -->
<g id="edge44" class="edge">
<title>tree_45&#45;&gt;tree_46</title>
<path fill="none" stroke="black" d="M711,-359.7C711,-352.41 711,-343.73 711,-335.54"/>
<polygon fill="black" stroke="black" points="714.5,-335.62 711,-325.62 707.5,-335.62 714.5,-335.62"/>
</g>
<!-- tree_48 -->
<g id="node49" class="node">
<title>tree_48</title>
<ellipse fill="none" stroke="black" cx="790" cy="-306" rx="33.32" ry="18"/>
<text xml:space="preserve" text-anchor="middle" x="790" y="-301.32" font-family="Times,serif" font-size="14.00">num</text>
</g>
<!-- tree_47&#45;&gt;tree_48 -->
<g id="edge47" class="edge">
<title>tree_47&#45;&gt;tree_48</title>
<path fill="none" stroke="black" d="M790,-359.7C790,-352.41 790,-343.73 790,-335.54"/>
<polygon fill="black" stroke="black" points="793.5,-335.62 790,-325.62 786.5,-335.62 793.5,-335.62"/>
</g>
<!-- tree_49 -->
<g id="node50" class="node">
<title>tree_49</title>
<polygon fill="none" stroke="black" points="817,-252 763,-252 763,-216 817,-216 817,-252"/>
<text xml:space="preserve" text-anchor="middle" x="790" y="-229.32" font-family="Times,serif" font-size="14.00">10</text>
</g>
<!-- tree_48&#45;&gt;tree_49 -->
<g id="edge46" class="edge">
<title>tree_48&#45;&gt;tree_49</title>
<path fill="none" stroke="black" d="M790,-287.7C790,-280.41 790,-271.73 790,-263.54"/>
<polygon fill="black" stroke="black" points="793.5,-263.62 790,-253.62 786.5,-263.62 793.5,-263.62"/>
</g>
<!-- tree_51 -->
<g id="node52" class="node">
<title>tree_51</title>
<polygon fill="none" stroke="black" points="895,-324 841,-324 841,-288 895,-288 895,-324"/>
<text xml:space="preserve" text-anchor="middle" x="868" y="-301.32" font-family="Times,serif" font-size="14.00">;</text>
</g>
<!-- tree_50&#45;&gt;tree_51 -->
<g id="edge49" class="edge">
<title>tree_50&#45;&gt;tree_51</title>
<path fill="none" stroke="black" d="M868.75,-359.7C868.65,-352.41 868.52,-343.73 868.41,-335.54"/>
<polygon fill="black" stroke="black" points="871.91,-335.57 868.27,-325.62 864.91,-335.67 871.91,-335.57"/>
</g>
<!-- tree_53 -->
<g id="node54" class="node">
<title>tree_53</title>
<ellipse fill="none" stroke="black" cx="979" cy="-378" rx="27" ry="18"/>
<text xml:space="preserve" text-anchor="middle" x="979" y="-373.32" font-family="Times,serif" font-size="14.00">fn</text>
</g>
<!-- tree_52&#45;&gt;tree_53 -->
<g id="edge53" class="edge">
<title>tree_52&#45;&gt;tree_53</title>
<path fill="none" stroke="black" d="M1212.6,-441.17C1164.12,-428.27 1067.58,-402.58 1015.06,-388.6"/>
<polygon fill="black" stroke="black" points="1015.97,-385.22 1005.4,-386.03 1014.17,-391.98 1015.97,-385.22"/>
</g>
<!-- tree_55 -->
<g id="node56" class="node">
<title>tree_55</title>
<ellipse fill="none" stroke="black" cx="1126" cy="-378" rx="27" ry="18"/>
<text xml:space="preserve" text-anchor="middle" x="1126" y="-373.32" font-family="Times,serif" font-size="14.00">id</text>
</g>
<!-- tree_52&#45;&gt;tree_55 -->
<g id="edge55" class="edge">
<title>tree_52&#45;&gt;tree_55</title>
<path fill="none" stroke="black" d="M1220.45,-436C1202.07,-424.9 1175.47,-408.85 1155.18,-396.61"/>
<polygon fill="black" stroke="black" points="1157.17,-393.72 1146.8,-391.55 1153.55,-399.71 1157.17,-393.72"/>
</g>
<!-- tree_57 -->
<g id="node58" class="node">
<title>tree_57</title>
<ellipse fill="none" stroke="black" cx="1242" cy="-378" rx="33.32" ry="18"/>
<text xml:space="preserve" text-anchor="middle" x="1242" y="-373.32" font-family="Times,serif" font-size="14.00">args</text>
</g>
<!-- tree_52&#45;&gt;tree_57 -->
<g id="edge68" class="edge">
<title>tree_52&#45;&gt;tree_57</title>
<path fill="none" stroke="black" d="M1242,-431.7C1242,-424.41 1242,-415.73 1242,-407.54"/>
<polygon fill="black" stroke="black" points="1245.5,-407.62 1242,-397.62 1238.5,-407.62 1245.5,-407.62"/>
</g>
<!-- tree_70 -->
<g id="node71" class="node">
<title>tree_70</title>
<ellipse fill="none" stroke="black" cx="1396" cy="-378" rx="27" ry="18"/>
<text xml:space="preserve" text-anchor="middle" x="1396" y="-373.32" font-family="Times,serif" font-size="14.00">=</text>
</g>
<!-- tree_52&#45;&gt;tree_70 -->
<g id="edge70" class="edge">
<title>tree_52&#45;&gt;tree_70</title>
<path fill="none" stroke="black" d="M1267.09,-437.6C1293.54,-425.57 1335.29,-406.6 1364.07,-393.51"/>
<polygon fill="black" stroke="black" points="1365.38,-396.77 1373.03,-389.44 1362.48,-390.39 1365.38,-396.77"/>
</g>
<!-- tree_72 -->
<g id="node73" class="node">
<title>tree_72</title>
<ellipse fill="none" stroke="black" cx="1517" cy="-378" rx="33.85" ry="18"/>
<text xml:space="preserve" text-anchor="middle" x="1517" y="-373.32" font-family="Times,serif" font-size="14.00">expr</text>
</g>
<!-- tree_52&#45;&gt;tree_72 -->
<g id="edge80" class="edge">
<title>tree_52&#45;&gt;tree_72</title>
<path fill="none" stroke="black" d="M1271.69,-441.44C1321.07,-428.87 1420.14,-403.65 1476.1,-389.41"/>
<polygon fill="black" stroke="black" points="1476.72,-392.86 1485.55,-387.01 1474.99,-386.08 1476.72,-392.86"/>
</g>
<!-- tree_82 -->
<g id="node83" class="node">
<title>tree_82</title>
<ellipse fill="none" stroke="black" cx="1622" cy="-378" rx="27" ry="18"/>
<text xml:space="preserve" text-anchor="middle" x="1622" y="-373.32" font-family="Times,serif" font-size="14.00">;</text>
</g>
<!-- tree_52&#45;&gt;tree_82 -->
<g id="edge82" class="edge">
<title>tree_52&#45;&gt;tree_82</title>
<path fill="none" stroke="black" d="M1274.26,-444.74C1331.93,-436.87 1456.41,-418.77 1560,-396 1568.72,-394.08 1578.04,-391.71 1586.73,-389.34"/>
<polygon fill="black" stroke="black" points="1587.55,-392.75 1596.24,-386.69 1585.67,-386 1587.55,-392.75"/>
</g>
<!-- tree_54 -->
<g id="node55" class="node">
<title>tree_54</title>
<polygon fill="none" stroke="black" points="967,-324 913,-324 913,-288 967,-288 967,-324"/>
<text xml:space="preserve" text-anchor="middle" x="940" y="-301.32" font-family="Times,serif" font-size="14.00">fn</text>
</g>
<!-- tree_53&#45;&gt;tree_54 -->
<g id="edge52" class="edge">
<title>tree_53&#45;&gt;tree_54</title>
<path fill="none" stroke="black" d="M969.95,-360.76C965.51,-352.78 960.03,-342.95 954.98,-333.89"/>
<polygon fill="black" stroke="black" points="958.2,-332.48 950.28,-325.45 952.09,-335.89 958.2,-332.48"/>
</g>
<!-- tree_56 -->
<g id="node57" class="node">
<title>tree_56</title>
<polygon fill="none" stroke="black" points="1039,-324 985,-324 985,-288 1039,-288 1039,-324"/>
<text xml:space="preserve" text-anchor="middle" x="1012" y="-301.32" font-family="Times,serif" font-size="14.00">add</text>
</g>
<!-- tree_55&#45;&gt;tree_56 -->
<g id="edge54" class="edge">
<title>tree_55&#45;&gt;tree_56</title>
<path fill="none" stroke="black" d="M1106.66,-365.13C1090.87,-355.43 1068.09,-341.44 1048.83,-329.62"/>
<polygon fill="black" stroke="black" points="1050.78,-326.71 1040.43,-324.46 1047.12,-332.67 1050.78,-326.71"/>
</g>
<!-- tree_58 -->
<g id="node59" class="node">
<title>tree_58</title>
<ellipse fill="none" stroke="black" cx="1084" cy="-306" rx="27" ry="18"/>
<text xml:space="preserve" text-anchor="middle" x="1084" y="-301.32" font-family="Times,serif" font-size="14.00">(</text>
</g>
<!-- tree_57&#45;&gt;tree_58 -->
<g id="edge57" class="edge">
<title>tree_57&#45;&gt;tree_58</title>
<path fill="none" stroke="black" d="M1216.19,-366.07C1191.43,-355.51 1153.02,-338.97 1120,-324 1118.69,-323.41 1117.35,-322.8 1116.01,-322.18"/>
<polygon fill="black" stroke="black" points="1117.57,-319.04 1107.02,-318 1114.61,-325.39 1117.57,-319.04"/>
</g>
<!-- tree_60 -->
<g id="node61" class="node">
<title>tree_60</title>
<ellipse fill="none" stroke="black" cx="1163" cy="-306" rx="33.85" ry="18"/>
<text xml:space="preserve" text-anchor="middle" x="1163" y="-301.32" font-family="Times,serif" font-size="14.00">expr</text>
</g>
<!-- tree_57&#45;&gt;tree_60 -->
<g id="edge60" class="edge">
<title>tree_57&#45;&gt;tree_60</title>
<path fill="none" stroke="black" d="M1225.25,-362.15C1214.53,-352.66 1200.43,-340.16 1188.36,-329.47"/>
<polygon fill="black" stroke="black" points="1190.94,-327.08 1181.13,-323.07 1186.3,-332.32 1190.94,-327.08"/>
</g>
<!-- tree_63 -->
<g id="node64" class="node">
<title>tree_63</title>
<ellipse fill="none" stroke="black" cx="1242" cy="-306" rx="27" ry="18"/>
<text xml:space="preserve" text-anchor="middle" x="1242" y="-301.32" font-family="Times,serif" font-size="14.00">,</text>
</g>
<!-- tree_57&#45;&gt;tree_63 -->
<g id="edge62" class="edge">
<title>tree_57&#45;&gt;tree_63</title>
<path fill="none" stroke="black" d="M1242,-359.7C1242,-352.41 1242,-343.73 1242,-335.54"/>
<polygon fill="black" stroke="black" points="1245.5,-335.62 1242,-325.62 1238.5,-335.62 1245.5,-335.62"/>
</g>
<!-- tree_65 -->
<g id="node66" class="node">
<title>tree_65</title>
<ellipse fill="none" stroke="black" cx="1321" cy="-306" rx="33.85" ry="18"/>
<text xml:space="preserve" text-anchor="middle" x="1321" y="-301.32" font-family="Times,serif" font-size="14.00">expr</text>
</g>
<!-- tree_57&#45;&gt;tree_65 -->
<g id="edge65" class="edge">
<title>tree_57&#45;&gt;tree_65</title>
<path fill="none" stroke="black" d="M1258.75,-362.15C1269.47,-352.66 1283.57,-340.16 1295.64,-329.47"/>
<polygon fill="black" stroke="black" points="1297.7,-332.32 1302.87,-323.07 1293.06,-327.08 1297.7,-332.32"/>
</g>
<!-- tree_68 -->
<g id="node69" class="node">
<title>tree_68</title>
<ellipse fill="none" stroke="black" cx="1400" cy="-306" rx="27" ry="18"/>
<text xml:space="preserve" text-anchor="middle" x="1400" y="-301.32" font-family="Times,serif" font-size="14.00">)</text>
</g>
<!-- tree_57&#45;&gt;tree_68 -->
<g id="edge67" class="edge">
<title>tree_57&#45;&gt;tree_68</title>
<path fill="none" stroke="black" d="M1267.81,-366.07C1292.57,-355.51 1330.98,-338.97 1364,-324 1365.31,-323.41 1366.65,-322.8 1367.99,-322.18"/>
<polygon fill="black" stroke="black" points="1369.39,-325.39 1376.98,-318 1366.43,-319.04 1369.39,-325.39"/>
</g>
<!-- tree_59 -->
<g id="node60" class="node">
<title>tree_59</title>
<polygon fill="none" stroke="black" points="1111,-252 1057,-252 1057,-216 1111,-216 1111,-252"/>
<text xml:space="preserve" text-anchor="middle" x="1084" y="-229.32" font-family="Times,serif" font-size="14.00">(</text>
</g>
<!-- tree_58&#45;&gt;tree_59 -->
<g id="edge56" class="edge">
<title>tree_58&#45;&gt;tree_59</title>
<path fill="none" stroke="black" d="M1084,-287.7C1084,-280.41 1084,-271.73 1084,-263.54"/>
<polygon fill="black" stroke="black" points="1087.5,-263.62 1084,-253.62 1080.5,-263.62 1087.5,-263.62"/>
</g>
<!-- tree_61 -->
<g id="node62" class="node">
<title>tree_61</title>
<ellipse fill="none" stroke="black" cx="1163" cy="-234" rx="27" ry="18"/>
<text xml:space="preserve" text-anchor="middle" x="1163" y="-229.32" font-family="Times,serif" font-size="14.00">id</text>
</g>
<!-- tree_60&#45;&gt;tree_61 -->
<g id="edge59" class="edge">
<title>tree_60&#45;&gt;tree_61</title>
<path fill="none" stroke="black" d="M1163,-287.7C1163,-280.41 1163,-271.73 1163,-263.54"/>
<polygon fill="black" stroke="black" points="1166.5,-263.62 1163,-253.62 1159.5,-263.62 1166.5,-263.62"/>
</g>
<!-- tree_62 -->
<g id="node63" class="node">
<title>tree_62</title>
<polygon fill="none" stroke="black" points="1190,-180 1136,-180 1136,-144 1190,-144 1190,-180"/>
<text xml:space="preserve" text-anchor="middle" x="1163" y="-157.32" font-family="Times,serif" font-size="14.00">a</text>
</g>
<!-- tree_61&#45;&gt;tree_62 -->
<g id="edge58" class="edge">
<title>tree_61&#45;&gt;tree_62</title>
<path fill="none" stroke="black" d="M1163,-215.7C1163,-208.41 1163,-199.73 1163,-191.54"/>
<polygon fill="black" stroke="black" points="1166.5,-191.62 1163,-181.62 1159.5,-191.62 1166.5,-191.62"/>
</g>
<!-- tree_64 -->
<g id="node65" class="node">
<title>tree_64</title>
<polygon fill="none" stroke="black" points="1269,-252 1215,-252 1215,-216 1269,-216 1269,-252"/>
<text xml:space="preserve" text-anchor="middle" x="1242" y="-229.32" font-family="Times,serif" font-size="14.00">,</text>
</g>
<!-- tree_63&#45;&gt;tree_64 -->
<g id="edge61" class="edge">
<title>tree_63&#45;&gt;tree_64</title>
<path fill="none" stroke="black" d="M1242,-287.7C1242,-280.41 1242,-271.73 1242,-263.54"/>
<polygon fill="black" stroke="black" points="1245.5,-263.62 1242,-253.62 1238.5,-263.62 1245.5,-263.62"/>
</g>
<!-- tree_66 -->
<g id="node67" class="node">
<title>tree_66</title>
<ellipse fill="none" stroke="black" cx="1321" cy="-234" rx="27" ry="18"/>
<text xml:space="preserve" text-anchor="middle" x="1321" y="-229.32" font-family="Times,serif" font-size="14.00">id</text>
</g>
<!-- tree_65&#45;&gt;tree_66 -->
<g id="edge64" class="edge">
<title>tree_65&#45;&gt;tree_66</title>
<path fill="none" stroke="black" d="M1321,-287.7C1321,-280.41 1321,-271.73 1321,-263.54"/>
<polygon fill="black" stroke="black" points="1324.5,-263.62 1321,-253.62 1317.5,-263.62 1324.5,-263.62"/>
</g>
<!-- tree_67 -->
<g id="node68" class="node">
<title>tree_67</title>
<polygon fill="none" stroke="black" points="1348,-180 1294,-180 1294,-144 1348,-144 1348,-180"/>
<text xml:space="preserve" text-anchor="middle" x="1321" y="-157.32" font-family="Times,serif" font-size="14.00">b</text>
</g>
<!-- tree_66&#45;&gt;tree_67 -->
<g id="edge63" class="edge">
<title>tree_66&#45;&gt;tree_67</title>
<path fill="none" stroke="black" d="M1321,-215.7C1321,-208.41 1321,-199.73 1321,-191.54"/>
<polygon fill="black" stroke="black" points="1324.5,-191.62 1321,-181.62 1317.5,-191.62 1324.5,-191.62"/>
</g>
<!-- tree_69 -->
<g id="node70" class="node">
<title>tree_69</title>
<polygon fill="none" stroke="black" points="1427,-252 1373,-252 1373,-216 1427,-216 1427,-252"/>
<text xml:space="preserve" text-anchor="middle" x="1400" y="-229.32" font-family="Times,serif" font-size="14.00">)</text>
</g>
<!-- tree_68&#45;&gt;tree_69 -->
<g id="edge66" class="edge">
<title>tree_68&#45;&gt;tree_69</title>
<path fill="none" stroke="black" d="M1400,-287.7C1400,-280.41 1400,-271.73 1400,-263.54"/>
<polygon fill="black" stroke="black" points="1403.5,-263.62 1400,-253.62 1396.5,-263.62 1403.5,-263.62"/>
</g>
<!-- tree_71 -->
<g id="node72" class="node">
<title>tree_71</title>
<polygon fill="none" stroke="black" points="1499,-324 1445,-324 1445,-288 1499,-288 1499,-324"/>
<text xml:space="preserve" text-anchor="middle" x="1472" y="-301.32" font-family="Times,serif" font-size="14.00">=</text>
</g>
<!-- tree_70&#45;&gt;tree_71 -->
<g id="edge69" class="edge">
<title>tree_70&#45;&gt;tree_71</title>
<path fill="none" stroke="black" d="M1411.38,-362.83C1420.99,-353.98 1433.63,-342.34 1444.88,-331.98"/>
<polygon fill="black" stroke="black" points="1447.05,-334.74 1452.03,-325.39 1442.3,-329.59 1447.05,-334.74"/>
</g>
<!-- tree_73 -->
<g id="node74" class="node">
<title>tree_73</title>
<ellipse fill="none" stroke="black" cx="1560" cy="-306" rx="43.32" ry="18"/>
<text xml:space="preserve" text-anchor="middle" x="1560" y="-301.32" font-family="Times,serif" font-size="14.00">binary</text>
</g>
<!-- tree_72&#45;&gt;tree_73 -->
<g id="edge79" class="edge">
<title>tree_72&#45;&gt;tree_73</title>
<path fill="none" stroke="black" d="M1527.19,-360.41C1532.1,-352.42 1538.11,-342.64 1543.63,-333.64"/>
<polygon fill="black" stroke="black" points="1546.54,-335.6 1548.79,-325.25 1540.58,-331.93 1546.54,-335.6"/>
</g>
<!-- tree_74 -->
<g id="node75" class="node">
<title>tree_74</title>
<ellipse fill="none" stroke="black" cx="1481" cy="-234" rx="33.85" ry="18"/>
<text xml:space="preserve" text-anchor="middle" x="1481" y="-229.32" font-family="Times,serif" font-size="14.00">expr</text>
</g>
<!-- tree_73&#45;&gt;tree_74 -->
<g id="edge73" class="edge">
<title>tree_73&#45;&gt;tree_74</title>
<path fill="none" stroke="black" d="M1542.47,-289.46C1531.89,-280.09 1518.23,-267.99 1506.48,-257.57"/>
<polygon fill="black" stroke="black" points="1508.88,-255.03 1499.07,-251.02 1504.24,-260.27 1508.88,-255.03"/>
</g>
<!-- tree_77 -->
<g id="node78" class="node">
<title>tree_77</title>
<ellipse fill="none" stroke="black" cx="1560" cy="-234" rx="27" ry="18"/>
<text xml:space="preserve" text-anchor="middle" x="1560" y="-229.32" font-family="Times,serif" font-size="14.00">+</text>
</g>
<!-- tree_73&#45;&gt;tree_77 -->
<g id="edge75" class="edge">
<title>tree_73&#45;&gt;tree_77</title>
<path fill="none" stroke="black" d="M1560,-287.7C1560,-280.41 1560,-271.73 1560,-263.54"/>
<polygon fill="black" stroke="black" points="1563.5,-263.62 1560,-253.62 1556.5,-263.62 1563.5,-263.62"/>
</g>
<!-- tree_79 -->
<g id="node80" class="node">
<title>tree_79</title>
<ellipse fill="none" stroke="black" cx="1639" cy="-234" rx="33.85" ry="18"/>
<text xml:space="preserve" text-anchor="middle" x="1639" y="-229.32" font-family="Times,serif" font-size="14.00">expr</text>
</g>
<!-- tree_73&#45;&gt;tree_79 -->
<g id="edge78" class="edge">
<title>tree_73&#45;&gt;tree_79</title>
<path fill="none" stroke="black" d="M1577.53,-289.46C1588.11,-280.09 1601.77,-267.99 1613.52,-257.57"/>
<polygon fill="black" stroke="black" points="1615.76,-260.27 1620.93,-251.02 1611.12,-255.03 1615.76,-260.27"/>
</g>
<!-- tree_75 -->
<g id="node76" class="node">
<title>tree_75</title>
<ellipse fill="none" stroke="black" cx="1481" cy="-162" rx="27" ry="18"/>
<text xml:space="preserve" text-anchor="middle" x="1481" y="-157.32" font-family="Times,serif" font-size="14.00">id</text>
</g>
<!-- tree_74&#45;&gt;tree_75 -->
<g id="edge72" class="edge">
<title>tree_74&#45;&gt;tree_75</title>
<path fill="none" stroke="black" d="M1481,-215.7C1481,-208.41 1481,-199.73 1481,-191.54"/>
<polygon fill="black" stroke="black" points="1484.5,-191.62 1481,-181.62 1477.5,-191.62 1484.5,-191.62"/>
</g>
<!-- tree_76 -->
<g id="node77" class="node">
<title>tree_76</title>
<polygon fill="none" stroke="black" points="1508,-108 1454,-108 1454,-72 1508,-72 1508,-108"/>
<text xml:space="preserve" text-anchor="middle" x="1481" y="-85.33" font-family="Times,serif" font-size="14.00">a</text>
</g>
<!-- tree_75&#45;&gt;tree_76 -->
<g id="edge71" class="edge">
<title>tree_75&#45;&gt;tree_76</title>
<path fill="none" stroke="black" d="M1481,-143.7C1481,-136.41 1481,-127.73 1481,-119.54"/>
<polygon fill="black" stroke="black" points="1484.5,-119.62 1481,-109.62 1477.5,-119.62 1484.5,-119.62"/>
</g>
<!-- tree_78 -->
<g id="node79" class="node">
<title>tree_78</title>
<polygon fill="none" stroke="black" points="1587,-180 1533,-180 1533,-144 1587,-144 1587,-180"/>
<text xml:space="preserve" text-anchor="middle" x="1560" y="-157.32" font-family="Times,serif" font-size="14.00">+</text>
</g>
<!-- tree_77&#45;&gt;tree_78 -->
<g id="edge74" class="edge">
<title>tree_77&#45;&gt;tree_78</title>
<path fill="none" stroke="black" d="M1560,-215.7C1560,-208.41 1560,-199.73 1560,-191.54"/>
<polygon fill="black" stroke="black" points="1563.5,-191.62 1560,-181.62 1556.5,-191.62 1563.5,-191.62"/>
</g>
<!-- tree_80 -->
<g id="node81" class="node">
<title>tree_80</title>
<ellipse fill="none" stroke="black" cx="1639" cy="-162" rx="27" ry="18"/>
<text xml:space="preserve" text-anchor="middle" x="1639" y="-157.32" font-family="Times,serif" font-size="14.00">id</text>
</g>
<!-- tree_79&#45;&gt;tree_80 -->
<g id="edge77" class="edge">
<title>tree_79&#45;&gt;tree_80</title>
<path fill="none" stroke="black" d="M1639,-215.7C1639,-208.41 1639,-199.73 1639,-191.54"/>
<polygon fill="black" stroke="black" points="1642.5,-191.62 1639,-181.62 1635.5,-191.62 1642.5,-191.62"/>
</g>
<!-- tree_81 -->
<g id="node82" class="node">
<title>tree_81</title>
<polygon fill="none" stroke="black" points="1666,-108 1612,-108 1612,-72 1666,-72 1666,-108"/>
<text xml:space="preserve" text-anchor="middle" x="1639" y="-85.33" font-family="Times,serif" font-size="14.00">b</text>
</g>
<!-- tree_80&#45;&gt;tree_81 -->
<g id="edge76" class="edge">
<title>tree_80&#45;&gt;tree_81</title>
<path fill="none" stroke="black" d="M1639,-143.7C1639,-136.41 1639,-127.73 1639,-119.54"/>
<polygon fill="black" stroke="black" points="1642.5,-119.62 1639,-109.62 1635.5,-119.62 1642.5,-119.62"/>
</g>
<!-- tree_83 -->
<g id="node84" class="node">
<title>tree_83</title>
<polygon fill="none" stroke="black" points="1675,-324 1621,-324 1621,-288 1675,-288 1675,-324"/>
<text xml:space="preserve" text-anchor="middle" x="1648" y="-301.32" font-family="Times,serif" font-size="14.00">;</text>
</g>
<!-- tree_82&#45;&gt;tree_83 -->
<g id="edge81" class="edge">
<title>tree_82&#45;&gt;tree_83</title>
<path fill="none" stroke="black" d="M1628.29,-360.05C1631.09,-352.52 1634.47,-343.44 1637.62,-334.94"/>
<polygon fill="black" stroke="black" points="1640.86,-336.29 1641.06,-325.69 1634.29,-333.85 1640.86,-336.29"/>
</g>
</g>
</svg>
